<mxfile host="app.diagrams.net" modified="2023-08-24T04:49:10.438Z" agent="Mozilla/5.0 (Windows NT 10.0; Win64; x64) AppleWebKit/537.36 (KHTML, like Gecko) Chrome/115.0.0.0 Safari/537.36 Edg/115.0.1901.203" etag="t6bDSCQc_eksAC1bfv9m" version="21.6.9" type="github">
  <diagram id="aeCOM6R8oNLb_Fvaol1f" name="Page-1">
    <mxGraphModel dx="739" dy="470" grid="1" gridSize="10" guides="1" tooltips="1" connect="1" arrows="1" fold="1" page="1" pageScale="1" pageWidth="2336" pageHeight="1654" math="0" shadow="0">
      <root>
        <mxCell id="0" />
        <mxCell id="1" parent="0" />
        <mxCell id="c4K_Bumv6GerBLCT27ij-15" style="edgeStyle=orthogonalEdgeStyle;rounded=0;orthogonalLoop=1;jettySize=auto;html=1;exitX=0.572;exitY=0.998;exitDx=0;exitDy=0;exitPerimeter=0;" parent="1" source="c4K_Bumv6GerBLCT27ij-1" target="c4K_Bumv6GerBLCT27ij-5" edge="1">
          <mxGeometry relative="1" as="geometry">
            <mxPoint x="767" y="470" as="sourcePoint" />
          </mxGeometry>
        </mxCell>
        <mxCell id="c4K_Bumv6GerBLCT27ij-45" style="edgeStyle=orthogonalEdgeStyle;rounded=0;orthogonalLoop=1;jettySize=auto;html=1;exitX=0.5;exitY=0;exitDx=0;exitDy=0;entryX=0.5;entryY=1;entryDx=0;entryDy=0;startArrow=none;startFill=0;" parent="1" source="c4K_Bumv6GerBLCT27ij-1" target="c4K_Bumv6GerBLCT27ij-10" edge="1">
          <mxGeometry relative="1" as="geometry">
            <Array as="points">
              <mxPoint x="790" y="410" />
              <mxPoint x="790" y="365" />
              <mxPoint x="830" y="365" />
            </Array>
          </mxGeometry>
        </mxCell>
        <mxCell id="c4K_Bumv6GerBLCT27ij-1" value="&lt;b&gt;Pre-registration&lt;/b&gt;" style="rounded=0;whiteSpace=wrap;html=1;" parent="1" vertex="1">
          <mxGeometry x="670" y="410" width="150" height="60" as="geometry" />
        </mxCell>
        <mxCell id="c4K_Bumv6GerBLCT27ij-3" value="OTPManager" style="rounded=0;whiteSpace=wrap;html=1;" parent="1" vertex="1">
          <mxGeometry x="670" y="230" width="100" height="40" as="geometry" />
        </mxCell>
        <mxCell id="c4K_Bumv6GerBLCT27ij-4" value="Syncdata" style="rounded=0;whiteSpace=wrap;html=1;" parent="1" vertex="1">
          <mxGeometry x="530" y="300" width="100" height="40" as="geometry" />
        </mxCell>
        <mxCell id="c4K_Bumv6GerBLCT27ij-5" value="Notification" style="rounded=0;whiteSpace=wrap;html=1;" parent="1" vertex="1">
          <mxGeometry x="706" y="550" width="100" height="40" as="geometry" />
        </mxCell>
        <mxCell id="c4K_Bumv6GerBLCT27ij-8" value="Masterdata" style="rounded=0;whiteSpace=wrap;html=1;" parent="1" vertex="1">
          <mxGeometry x="490" y="360" width="100" height="40" as="geometry" />
        </mxCell>
        <mxCell id="c4K_Bumv6GerBLCT27ij-9" value="PRIDGenerator" style="rounded=0;whiteSpace=wrap;html=1;" parent="1" vertex="1">
          <mxGeometry x="850" y="520" width="100" height="44" as="geometry" />
        </mxCell>
        <mxCell id="c4K_Bumv6GerBLCT27ij-10" value="Auditmanager" style="rounded=0;whiteSpace=wrap;html=1;" parent="1" vertex="1">
          <mxGeometry x="780" y="270" width="100" height="40" as="geometry" />
        </mxCell>
        <mxCell id="c4K_Bumv6GerBLCT27ij-21" style="edgeStyle=orthogonalEdgeStyle;rounded=0;orthogonalLoop=1;jettySize=auto;html=1;exitX=0.5;exitY=0;exitDx=0;exitDy=0;entryX=0.205;entryY=0.98;entryDx=0;entryDy=0;entryPerimeter=0;startArrow=none;startFill=0;" parent="1" source="c4K_Bumv6GerBLCT27ij-11" target="c4K_Bumv6GerBLCT27ij-1" edge="1">
          <mxGeometry relative="1" as="geometry" />
        </mxCell>
        <mxCell id="c4K_Bumv6GerBLCT27ij-11" value="Registration Processor" style="rounded=0;whiteSpace=wrap;html=1;" parent="1" vertex="1">
          <mxGeometry x="520" y="534" width="120" height="46" as="geometry" />
        </mxCell>
        <mxCell id="c4K_Bumv6GerBLCT27ij-19" value="Registration Client" style="rounded=0;whiteSpace=wrap;html=1;" parent="1" vertex="1">
          <mxGeometry x="470" y="440" width="120" height="40" as="geometry" />
        </mxCell>
        <mxCell id="c4K_Bumv6GerBLCT27ij-33" value="9" style="ellipse;whiteSpace=wrap;html=1;aspect=fixed;fontSize=10;" parent="1" vertex="1">
          <mxGeometry x="620" y="441" width="15" height="15" as="geometry" />
        </mxCell>
        <mxCell id="c4K_Bumv6GerBLCT27ij-38" value="" style="shape=image;verticalLabelPosition=bottom;labelBackgroundColor=default;verticalAlign=top;aspect=fixed;imageAspect=0;image=https://blog.consdata.tech/assets/img/posts/2020-02-01-keycloak-uwierzytelnianie-autoryzacja-springboot-angular/Keycloak.png;" parent="1" vertex="1">
          <mxGeometry x="960" y="355" width="94.41" height="63" as="geometry" />
        </mxCell>
        <mxCell id="c4K_Bumv6GerBLCT27ij-43" value="" style="group" parent="1" vertex="1" connectable="0">
          <mxGeometry x="980" y="446" width="60" height="104" as="geometry" />
        </mxCell>
        <mxCell id="c4K_Bumv6GerBLCT27ij-2" value="" style="shape=cylinder3;whiteSpace=wrap;html=1;boundedLbl=1;backgroundOutline=1;size=15;" parent="c4K_Bumv6GerBLCT27ij-43" vertex="1">
          <mxGeometry width="50" height="74" as="geometry" />
        </mxCell>
        <mxCell id="c4K_Bumv6GerBLCT27ij-41" value="" style="shape=image;verticalLabelPosition=bottom;labelBackgroundColor=default;verticalAlign=top;aspect=fixed;imageAspect=0;image=https://miro.medium.com/max/370/1*N8PzWF7yjXvqiDkdfs_5Eg.png;" parent="c4K_Bumv6GerBLCT27ij-43" vertex="1">
          <mxGeometry x="7.240000000000009" y="34" width="39.93" height="30" as="geometry" />
        </mxCell>
        <mxCell id="c4K_Bumv6GerBLCT27ij-42" value="mosip_prereg" style="text;html=1;strokeColor=none;fillColor=none;align=center;verticalAlign=middle;whiteSpace=wrap;rounded=0;" parent="c4K_Bumv6GerBLCT27ij-43" vertex="1">
          <mxGeometry y="74" width="60" height="30" as="geometry" />
        </mxCell>
        <mxCell id="dI7-bqHqNFHkqhAfUtq3-6" value="10" style="ellipse;whiteSpace=wrap;html=1;aspect=fixed;fontSize=10;" parent="1" vertex="1">
          <mxGeometry x="620" y="403" width="15" height="15" as="geometry" />
        </mxCell>
        <mxCell id="dI7-bqHqNFHkqhAfUtq3-7" value="1" style="ellipse;whiteSpace=wrap;html=1;aspect=fixed;fontSize=10;" parent="1" vertex="1">
          <mxGeometry x="667" y="345.5" width="15" height="15" as="geometry" />
        </mxCell>
        <mxCell id="dI7-bqHqNFHkqhAfUtq3-8" value="2" style="ellipse;whiteSpace=wrap;html=1;aspect=fixed;fontSize=10;" parent="1" vertex="1">
          <mxGeometry x="723.5" y="345.5" width="15" height="15" as="geometry" />
        </mxCell>
        <mxCell id="dI7-bqHqNFHkqhAfUtq3-9" value="3" style="ellipse;whiteSpace=wrap;html=1;aspect=fixed;fontSize=10;" parent="1" vertex="1">
          <mxGeometry x="833" y="345.5" width="15" height="15" as="geometry" />
        </mxCell>
        <mxCell id="dI7-bqHqNFHkqhAfUtq3-10" value="4" style="ellipse;whiteSpace=wrap;html=1;aspect=fixed;fontSize=10;" parent="1" vertex="1">
          <mxGeometry x="880" y="403" width="15" height="15" as="geometry" />
        </mxCell>
        <mxCell id="dI7-bqHqNFHkqhAfUtq3-11" value="5" style="ellipse;whiteSpace=wrap;html=1;aspect=fixed;fontSize=10;" parent="1" vertex="1">
          <mxGeometry x="925" y="465" width="15" height="15" as="geometry" />
        </mxCell>
        <mxCell id="dI7-bqHqNFHkqhAfUtq3-12" value="6" style="ellipse;whiteSpace=wrap;html=1;aspect=fixed;fontSize=10;" parent="1" vertex="1">
          <mxGeometry x="862" y="485" width="15" height="15" as="geometry" />
        </mxCell>
        <mxCell id="dI7-bqHqNFHkqhAfUtq3-13" value="7" style="ellipse;whiteSpace=wrap;html=1;aspect=fixed;fontSize=10;" parent="1" vertex="1">
          <mxGeometry x="760" y="492" width="15" height="15" as="geometry" />
        </mxCell>
        <mxCell id="dI7-bqHqNFHkqhAfUtq3-14" value="8" style="ellipse;whiteSpace=wrap;html=1;aspect=fixed;fontSize=10;" parent="1" vertex="1">
          <mxGeometry x="649" y="505" width="15" height="15" as="geometry" />
        </mxCell>
        <mxCell id="wPPWB2vxLA_HfSkyKYZE-1" value="" style="endArrow=classic;html=1;rounded=0;entryX=0.5;entryY=1;entryDx=0;entryDy=0;" edge="1" parent="1" target="c4K_Bumv6GerBLCT27ij-3">
          <mxGeometry width="50" height="50" relative="1" as="geometry">
            <mxPoint x="720" y="410" as="sourcePoint" />
            <mxPoint x="810" y="370" as="targetPoint" />
          </mxGeometry>
        </mxCell>
        <mxCell id="wPPWB2vxLA_HfSkyKYZE-2" value="" style="endArrow=classic;html=1;rounded=0;entryX=1;entryY=0.5;entryDx=0;entryDy=0;" edge="1" parent="1" target="c4K_Bumv6GerBLCT27ij-4">
          <mxGeometry width="50" height="50" relative="1" as="geometry">
            <mxPoint x="690" y="410" as="sourcePoint" />
            <mxPoint x="810" y="370" as="targetPoint" />
            <Array as="points">
              <mxPoint x="690" y="320" />
            </Array>
          </mxGeometry>
        </mxCell>
        <mxCell id="wPPWB2vxLA_HfSkyKYZE-3" value="" style="endArrow=classic;html=1;rounded=0;entryX=1;entryY=0.5;entryDx=0;entryDy=0;" edge="1" parent="1" target="c4K_Bumv6GerBLCT27ij-8">
          <mxGeometry width="50" height="50" relative="1" as="geometry">
            <mxPoint x="640" y="430" as="sourcePoint" />
            <mxPoint x="810" y="370" as="targetPoint" />
            <Array as="points">
              <mxPoint x="640" y="380" />
            </Array>
          </mxGeometry>
        </mxCell>
        <mxCell id="wPPWB2vxLA_HfSkyKYZE-5" value="" style="endArrow=none;html=1;rounded=0;" edge="1" parent="1">
          <mxGeometry width="50" height="50" relative="1" as="geometry">
            <mxPoint x="640" y="430" as="sourcePoint" />
            <mxPoint x="670" y="430" as="targetPoint" />
          </mxGeometry>
        </mxCell>
        <mxCell id="wPPWB2vxLA_HfSkyKYZE-6" value="" style="endArrow=classic;html=1;rounded=0;exitX=1;exitY=0.5;exitDx=0;exitDy=0;entryX=0;entryY=0.833;entryDx=0;entryDy=0;entryPerimeter=0;" edge="1" parent="1" source="c4K_Bumv6GerBLCT27ij-19" target="c4K_Bumv6GerBLCT27ij-1">
          <mxGeometry width="50" height="50" relative="1" as="geometry">
            <mxPoint x="760" y="420" as="sourcePoint" />
            <mxPoint x="810" y="370" as="targetPoint" />
          </mxGeometry>
        </mxCell>
        <mxCell id="wPPWB2vxLA_HfSkyKYZE-7" value="" style="endArrow=classic;html=1;rounded=0;exitX=1;exitY=0.5;exitDx=0;exitDy=0;entryX=0;entryY=0;entryDx=0;entryDy=48;entryPerimeter=0;" edge="1" parent="1" source="c4K_Bumv6GerBLCT27ij-1" target="c4K_Bumv6GerBLCT27ij-2">
          <mxGeometry width="50" height="50" relative="1" as="geometry">
            <mxPoint x="760" y="420" as="sourcePoint" />
            <mxPoint x="810" y="370" as="targetPoint" />
            <Array as="points">
              <mxPoint x="920" y="440" />
            </Array>
          </mxGeometry>
        </mxCell>
        <mxCell id="wPPWB2vxLA_HfSkyKYZE-10" value="" style="endArrow=classic;html=1;rounded=0;entryX=0;entryY=0.5;entryDx=0;entryDy=0;exitX=1;exitY=0.25;exitDx=0;exitDy=0;" edge="1" parent="1" source="c4K_Bumv6GerBLCT27ij-1" target="c4K_Bumv6GerBLCT27ij-38">
          <mxGeometry width="50" height="50" relative="1" as="geometry">
            <mxPoint x="760" y="420" as="sourcePoint" />
            <mxPoint x="810" y="370" as="targetPoint" />
            <Array as="points">
              <mxPoint x="920" y="425" />
            </Array>
          </mxGeometry>
        </mxCell>
        <mxCell id="wPPWB2vxLA_HfSkyKYZE-12" value="" style="endArrow=classic;html=1;rounded=0;" edge="1" parent="1">
          <mxGeometry width="50" height="50" relative="1" as="geometry">
            <mxPoint x="820" y="460" as="sourcePoint" />
            <mxPoint x="900" y="520" as="targetPoint" />
            <Array as="points">
              <mxPoint x="900" y="460" />
            </Array>
          </mxGeometry>
        </mxCell>
      </root>
    </mxGraphModel>
  </diagram>
</mxfile>
